<svg xmlns="http://www.w3.org/2000/svg" width="900" height="240" viewBox="0 0 900 240" role="img" aria-label="GoSpot HotPost logo">
  <defs>
    <linearGradient id="g2" x1="0" x2="1" y1="0" y2="1">
      <stop offset="0" stop-color="#FF7A18"/>
      <stop offset="1" stop-color="#FF2D00"/>
    </linearGradient>
  </defs>

  <!-- Icon (pin + flame) -->
  <g transform="translate(40,20) scale(0.9)">
    <path d="M160 32c-38.7 0-70 31.3-70 70 0 51 70 150 70 150s70-99 70-150c0-38.7-31.3-70-70-70z" fill="url(#g2)"/>
    <circle cx="160" cy="96" r="26" fill="#fff"/>
    <path d="M160 80c-6.5 9.8-9.7 15-9.7 23.3 0 10 8.3 17 18.3 17s18.3-7 18.3-17c0-8.3-3.2-13.5-9.7-23.3-3-4.5-6.5-6-12-6s-9 1.5-13.2 6z" fill="#FF4F00" transform="translate(0,2)"/>
  </g>

  <!-- Text: GoSpot / HotPost -->
  <g transform="translate(260,70)">
    <text x="0" y="0" font-family="Inter, Roboto, Arial, sans-serif" font-size="64" font-weight="700" fill="#0F1724">GoSpot</text>
    <text x="0" y="48" font-family="Inter, Roboto, Arial, sans-serif" font-size="20" font-weight="600" fill="#FF4F00">HotPost</text>
  </g>
</svg>
